<svg xmlns="http://www.w3.org/2000/svg" width="1920" height="1080"><path d="M-196,-481L485,-492L1011,-599Z" fill="#d9daec" stroke="#d9daec" stroke-width="1.51"/><path d="M1011,-599L1425,-550L1810,-542Z" fill="#a0bfd6" stroke="#a0bfd6" stroke-width="1.51"/><path d="M813,1535L680,1541L1861,1673Z" fill="#307883" stroke="#307883" stroke-width="1.51"/><path d="M680,1541L-228,1654L1861,1673Z" fill="#4b8086" stroke="#4b8086" stroke-width="1.51"/><path d="M2245,199L2125,467L2328,915Z" fill="#3d828a" stroke="#3d828a" stroke-width="1.51"/><path d="M2125,467L2104,733L2328,915Z" fill="#2f7d88" stroke="#2f7d88" stroke-width="1.51"/><path d="M1806,1141L2326,1283L2328,915Z" fill="#06726d" stroke="#06726d" stroke-width="1.51"/><path d="M1967,-175L2245,199L2368,-222Z" fill="#749896" stroke="#749896" stroke-width="1.51"/><path d="M2233,-327L1967,-175L2368,-222Z" fill="#7d9d9a" stroke="#7d9d9a" stroke-width="1.51"/><path d="M2245,199L2328,915L2368,-222Z" fill="#56858a" stroke="#56858a" stroke-width="1.51"/><path d="M2326,1283L1861,1673L2378,1637Z" fill="#015d4c" stroke="#015d4c" stroke-width="1.51"/><path d="M2368,-222L2328,915L2378,1637Z" fill="#26717e" stroke="#26717e" stroke-width="1.51"/><path d="M2328,915L2326,1283L2378,1637Z" fill="#036256" stroke="#036256" stroke-width="1.51"/><path d="M1967,-175L2101,231L2245,199Z" fill="#6c9899" stroke="#6c9899" stroke-width="1.51"/><path d="M2101,231L2125,467L2245,199Z" fill="#598e92" stroke="#598e92" stroke-width="1.51"/><path d="M1806,1141L1861,1673L2326,1283Z" fill="#036f61" stroke="#036f61" stroke-width="1.51"/><path d="M2104,733L1806,1141L2328,915Z" fill="#1c7b82" stroke="#1c7b82" stroke-width="1.51"/><path d="M1806,1141L1720,1551L1861,1673Z" fill="#047068" stroke="#047068" stroke-width="1.51"/><path d="M1810,-542L1967,-175L2233,-327Z" fill="#86a9a7" stroke="#86a9a7" stroke-width="1.51"/><path d="M1967,-175L1496,230L2101,231Z" fill="#71a0aa" stroke="#71a0aa" stroke-width="1.51"/><path d="M1934,641L1806,1141L2104,733Z" fill="#248293" stroke="#248293" stroke-width="1.51"/><path d="M1934,641L2104,733L2125,467Z" fill="#388892" stroke="#388892" stroke-width="1.51"/><path d="M2101,231L1934,641L2125,467Z" fill="#4a8e96" stroke="#4a8e96" stroke-width="1.51"/><path d="M1496,230L1934,641L2101,231Z" fill="#5797a5" stroke="#5797a5" stroke-width="1.51"/><path d="M1399,1404L813,1535L1720,1551Z" fill="#257886" stroke="#257886" stroke-width="1.51"/><path d="M1593,693L1563,1098L1806,1141Z" fill="#1a869a" stroke="#1a869a" stroke-width="1.51"/><path d="M1720,1551L813,1535L1861,1673Z" fill="#1a6f76" stroke="#1a6f76" stroke-width="1.51"/><path d="M1443,427L1593,693L1934,641Z" fill="#3f94af" stroke="#3f94af" stroke-width="1.51"/><path d="M1496,230L1443,427L1934,641Z" fill="#549ab3" stroke="#549ab3" stroke-width="1.51"/><path d="M1593,693L1806,1141L1934,641Z" fill="#2587a0" stroke="#2587a0" stroke-width="1.51"/><path d="M1405,-48L1496,230L1967,-175Z" fill="#7ea9bc" stroke="#7ea9bc" stroke-width="1.51"/><path d="M1492,-240L1405,-48L1967,-175Z" fill="#87aebf" stroke="#87aebf" stroke-width="1.51"/><path d="M1810,-542L1492,-240L1967,-175Z" fill="#8bb0b8" stroke="#8bb0b8" stroke-width="1.51"/><path d="M1462,820L1563,1098L1593,693Z" fill="#2a8bac" stroke="#2a8bac" stroke-width="1.51"/><path d="M1563,1098L1399,1404L1720,1551Z" fill="#157b80" stroke="#157b80" stroke-width="1.51"/><path d="M1563,1098L1720,1551L1806,1141Z" fill="#057b7e" stroke="#057b7e" stroke-width="1.51"/><path d="M1425,-550L1489,-493L1810,-542Z" fill="#98bbc9" stroke="#98bbc9" stroke-width="1.51"/><path d="M1489,-493L1492,-240L1810,-542Z" fill="#94b6c6" stroke="#94b6c6" stroke-width="1.51"/><path d="M350,1514L-228,1654L680,1541Z" fill="#6e9191" stroke="#6e9191" stroke-width="1.51"/><path d="M1364,1305L1399,1404L1563,1098Z" fill="#1e8190" stroke="#1e8190" stroke-width="1.51"/><path d="M1443,427L1462,820L1593,693Z" fill="#4194b8" stroke="#4194b8" stroke-width="1.51"/><path d="M1462,820L1125,843L1563,1098Z" fill="#2e8db3" stroke="#2e8db3" stroke-width="1.51"/><path d="M1125,843L1364,1305L1563,1098Z" fill="#2589a7" stroke="#2589a7" stroke-width="1.51"/><path d="M1125,843L989,1124L1364,1305Z" fill="#358fab" stroke="#358fab" stroke-width="1.51"/><path d="M1443,427L1125,843L1462,820Z" fill="#4395c2" stroke="#4395c2" stroke-width="1.51"/><path d="M1489,-493L1425,-550L1492,-240Z" fill="#9ab9d0" stroke="#9ab9d0" stroke-width="1.51"/><path d="M1425,-550L1042,-183L1492,-240Z" fill="#9db9d8" stroke="#9db9d8" stroke-width="1.51"/><path d="M1137,271L1443,427L1496,230Z" fill="#6ea4ca" stroke="#6ea4ca" stroke-width="1.51"/><path d="M1405,-48L1137,271L1496,230Z" fill="#7da9ce" stroke="#7da9ce" stroke-width="1.51"/><path d="M1042,-183L1405,-48L1492,-240Z" fill="#94b4d6" stroke="#94b4d6" stroke-width="1.51"/><path d="M1011,-599L1042,-183L1425,-550Z" fill="#a8c2de" stroke="#a8c2de" stroke-width="1.51"/><path d="M1137,271L1125,843L1443,427Z" fill="#5ba0ca" stroke="#5ba0ca" stroke-width="1.51"/><path d="M942,52L1137,271L1405,-48Z" fill="#8bb1d4" stroke="#8bb1d4" stroke-width="1.51"/><path d="M1042,-183L942,52L1405,-48Z" fill="#98b7d8" stroke="#98b7d8" stroke-width="1.51"/><path d="M833,536L1125,843L1137,271Z" fill="#63a6cd" stroke="#63a6cd" stroke-width="1.51"/><path d="M1364,1305L813,1535L1399,1404Z" fill="#2f828d" stroke="#2f828d" stroke-width="1.51"/><path d="M989,1124L813,1535L1364,1305Z" fill="#398a98" stroke="#398a98" stroke-width="1.51"/><path d="M738,1270L813,1535L989,1124Z" fill="#4b919c" stroke="#4b919c" stroke-width="1.51"/><path d="M800,885L989,1124L1125,843Z" fill="#4a99bc" stroke="#4a99bc" stroke-width="1.51"/><path d="M833,536L800,885L1125,843Z" fill="#5ba0ca" stroke="#5ba0ca" stroke-width="1.51"/><path d="M942,52L730,139L1137,271Z" fill="#92b7d8" stroke="#92b7d8" stroke-width="1.51"/><path d="M730,139L833,536L1137,271Z" fill="#86b2d5" stroke="#86b2d5" stroke-width="1.51"/><path d="M730,139L652,399L833,536Z" fill="#8fb5d6" stroke="#8fb5d6" stroke-width="1.51"/><path d="M703,723L800,885L833,536Z" fill="#6ca6cd" stroke="#6ca6cd" stroke-width="1.51"/><path d="M749,-50L942,52L1042,-183Z" fill="#a4bfdc" stroke="#a4bfdc" stroke-width="1.51"/><path d="M1011,-599L485,-492L1042,-183Z" fill="#b9cce4" stroke="#b9cce4" stroke-width="1.51"/><path d="M485,-492L749,-50L1042,-183Z" fill="#b9c8e2" stroke="#b9c8e2" stroke-width="1.51"/><path d="M800,885L738,1270L989,1124Z" fill="#5098b0" stroke="#5098b0" stroke-width="1.51"/><path d="M749,-50L730,139L942,52Z" fill="#a5bedc" stroke="#a5bedc" stroke-width="1.51"/><path d="M485,-492L387,-409L749,-50Z" fill="#ccd0e6" stroke="#ccd0e6" stroke-width="1.51"/><path d="M445,800L738,1270L800,885Z" fill="#67a0bd" stroke="#67a0bd" stroke-width="1.51"/><path d="M738,1270L680,1541L813,1535Z" fill="#528d93" stroke="#528d93" stroke-width="1.51"/><path d="M652,399L703,723L833,536Z" fill="#7cafd2" stroke="#7cafd2" stroke-width="1.51"/><path d="M703,723L445,800L800,885Z" fill="#72a6cd" stroke="#72a6cd" stroke-width="1.51"/><path d="M652,399L396,550L703,723Z" fill="#88b2d5" stroke="#88b2d5" stroke-width="1.51"/><path d="M382,304L652,399L730,139Z" fill="#a3bcdb" stroke="#a3bcdb" stroke-width="1.51"/><path d="M230,-149L382,304L730,139Z" fill="#bac6e0" stroke="#bac6e0" stroke-width="1.51"/><path d="M445,800L226,1255L738,1270Z" fill="#6fa2b5" stroke="#6fa2b5" stroke-width="1.51"/><path d="M350,1514L680,1541L738,1270Z" fill="#5f9295" stroke="#5f9295" stroke-width="1.51"/><path d="M230,-149L730,139L749,-50Z" fill="#bbc7e1" stroke="#bbc7e1" stroke-width="1.51"/><path d="M387,-409L230,-149L749,-50Z" fill="#cbcfe6" stroke="#cbcfe6" stroke-width="1.51"/><path d="M226,1255L350,1514L738,1270Z" fill="#6b9a9f" stroke="#6b9a9f" stroke-width="1.51"/><path d="M396,550L445,800L703,723Z" fill="#84aed2" stroke="#84aed2" stroke-width="1.51"/><path d="M382,304L396,550L652,399Z" fill="#9cbad9" stroke="#9cbad9" stroke-width="1.51"/><path d="M-110,1511L-228,1654L350,1514Z" fill="#799795" stroke="#799795" stroke-width="1.51"/><path d="M81,875L226,1255L445,800Z" fill="#83abc4" stroke="#83abc4" stroke-width="1.51"/><path d="M-196,-481L387,-409L485,-492Z" fill="#e2deed" stroke="#e2deed" stroke-width="1.51"/><path d="M230,-149L-78,192L382,304Z" fill="#c7cce4" stroke="#c7cce4" stroke-width="1.51"/><path d="M2,615L81,875L396,550Z" fill="#99b8d8" stroke="#99b8d8" stroke-width="1.51"/><path d="M396,550L81,875L445,800Z" fill="#8db1d4" stroke="#8db1d4" stroke-width="1.51"/><path d="M-196,-481L-133,-335L387,-409Z" fill="#e8e1ef" stroke="#e8e1ef" stroke-width="1.51"/><path d="M382,304L2,615L396,550Z" fill="#a1bddb" stroke="#a1bddb" stroke-width="1.51"/><path d="M-78,192L2,615L382,304Z" fill="#b5c5e0" stroke="#b5c5e0" stroke-width="1.51"/><path d="M-133,-335L230,-149L387,-409Z" fill="#dfdaeb" stroke="#dfdaeb" stroke-width="1.51"/><path d="M-38,-119L-78,192L230,-149Z" fill="#d6d4e9" stroke="#d6d4e9" stroke-width="1.51"/><path d="M226,1255L-110,1511L350,1514Z" fill="#789e9c" stroke="#789e9c" stroke-width="1.51"/><path d="M-190,1309L-110,1511L226,1255Z" fill="#80a5a4" stroke="#80a5a4" stroke-width="1.51"/><path d="M81,875L-202,1250L226,1255Z" fill="#85acb8" stroke="#85acb8" stroke-width="1.51"/><path d="M-133,-335L-38,-119L230,-149Z" fill="#dfdaeb" stroke="#dfdaeb" stroke-width="1.51"/><path d="M-202,1250L-190,1309L226,1255Z" fill="#85a9ac" stroke="#85a9ac" stroke-width="1.51"/><path d="M-78,192L-231,657L2,615Z" fill="#b1c6e0" stroke="#b1c6e0" stroke-width="1.51"/><path d="M-437,866L-202,1250L81,875Z" fill="#94b5c8" stroke="#94b5c8" stroke-width="1.51"/><path d="M-231,657L-437,866L81,875Z" fill="#9fbbda" stroke="#9fbbda" stroke-width="1.51"/><path d="M2,615L-231,657L81,875Z" fill="#9fbbda" stroke="#9fbbda" stroke-width="1.51"/><path d="M-245,-180L-78,192L-38,-119Z" fill="#ddd8ea" stroke="#ddd8ea" stroke-width="1.51"/><path d="M-500,67L-231,657L-78,192Z" fill="#c7d1e6" stroke="#c7d1e6" stroke-width="1.51"/><path d="M-245,-180L-500,67L-78,192Z" fill="#dddbec" stroke="#dddbec" stroke-width="1.51"/><path d="M-133,-335L-245,-180L-38,-119Z" fill="#e6deee" stroke="#e6deee" stroke-width="1.51"/><path d="M-190,1309L-228,1654L-110,1511Z" fill="#82a19c" stroke="#82a19c" stroke-width="1.51"/><path d="M-196,-481L-245,-180L-133,-335Z" fill="#ede3f1" stroke="#ede3f1" stroke-width="1.51"/><path d="M-437,866L-228,1654L-202,1250Z" fill="#8cb0b1" stroke="#8cb0b1" stroke-width="1.51"/><path d="M-202,1250L-228,1654L-190,1309Z" fill="#85a8a2" stroke="#85a8a2" stroke-width="1.51"/><path d="M-500,67L-437,866L-231,657Z" fill="#b5cce3" stroke="#b5cce3" stroke-width="1.51"/><path d="M-500,67L-245,-180L-196,-481Z" fill="#eae2f0" stroke="#eae2f0" stroke-width="1.51"/></svg>